<?xml version="1.0" encoding="utf-8"?>
<!-- Generator: Adobe Illustrator 25.0.1, SVG Export Plug-In . SVG Version: 6.00 Build 0)  -->
<svg version="1.0" id="Layer_1" xmlns="http://www.w3.org/2000/svg" xmlns:xlink="http://www.w3.org/1999/xlink" x="0px" y="0px"
	 width="100px" height="100px" viewBox="0 0 100 100" enable-background="new 0 0 100 100" xml:space="preserve">
<path fill-rule="evenodd" clip-rule="evenodd" fill="#02303A" d="M88.3,22.4c-5.2-5.2-13.6-5.3-18.9-0.3c-0.3,0.2-0.4,0.6-0.4,1
	s0.1,0.7,0.4,1l1.6,1.7c0.5,0.5,1.2,0.5,1.7,0.1c3.3-2.6,8-2.2,10.8,1c2.7,3.2,2.5,7.9-0.5,10.8c-10.8,10.8-25.3-19.5-58.1-3.9
	c-1.1,0.5-2,1.5-2.3,2.7C22.2,37.7,22.4,39,23,40l5.6,9.7c1.2,2.1,3.9,2.8,6,1.7l0.1-0.1l-0.1,0.1l2.5-1.4c2.8-1.7,5.4-3.7,7.9-5.9
	c0.5-0.5,1.3-0.5,1.8-0.1l0,0c0.3,0.2,0.4,0.6,0.5,0.9c0,0.4-0.1,0.7-0.4,1c-2.6,2.3-5.4,4.4-8.3,6.2h-0.1L36,53.5
	c-1.1,0.6-2.2,0.9-3.4,0.9c-2.5,0-4.9-1.3-6.2-3.5L21,41.7C10.8,49,4.6,62.9,7.9,80.5c0.1,0.6,0.6,1.1,1.3,1.1h6
	c0.7,0,1.3-0.5,1.3-1.2c0.6-4.4,4.3-7.7,8.8-7.7s8.2,3.3,8.8,7.7c0.1,0.6,0.6,1.1,1.3,1.1h5.9c0.7,0,1.2-0.5,1.3-1.1
	c0.6-4.4,4.3-7.7,8.8-7.7s8.2,3.3,8.8,7.7c0.1,0.6,0.6,1.1,1.3,1.1h5.8c0.7,0,1.3-0.6,1.3-1.3c0.1-8.2,2.4-17.7,8.7-22.4
	C99.1,41.5,93.4,27.5,88.3,22.4z M66,47.1L61.8,45l0,0c0-1.2,0.9-2.3,2.1-2.6c1.2-0.3,2.4,0.4,2.9,1.5C67.3,45.1,67,46.4,66,47.1
	L66,47.1z"/>
</svg>
