<!-- Copyright 2000-2023 JetBrains s.r.o. and contributors. Use of this source code is governed by the Apache 2.0 license. -->
<svg xmlns="http://www.w3.org/2000/svg" width="16" height="16" viewBox="0 0 16 16" fill="none">
    <defs>
        <clipPath id="mask">
            <polygon points="0 0 0 16 7 16 7 11.5 10 10 16 10.2 16 0" fill="white"/>
        </clipPath>
    </defs>

    <g clip-path="url(#mask)" stroke="#6C707E" stroke-linejoin="round">
        <path d="M3.6 1.5H1.61V4.7H3.6L4.4 4.3H5.6L6.6 5.1H8.8L10.4 3.9C11.6 3.9 12.4 3.9 14.4 5.3C13.2 1.5 10.8 1.5 9.6 1.5H6.6L5.6 1.9H4.4L3.6 1.5Z"/>
        <path d="M6 14.5H9.4V9.426C9.4 8.75 9.26 8.08 9 7.46L8.8 7V5H6.6V7L6.4 7.46C6.14 8.08 6 8.75 6 9.426V14.5Z"/>
    </g>

    <path d="m15.5 10.9c-0.18-0.38-0.78-0.82-1.45-0.24m1.45 0.24c0.23 0.44-0.17 1.26-0.97 1.26-1.05 0-2.15-1.72-4.54-0.55-0.21 0.1-0.31 0.35-0.23 0.57l0.06 0.18m5.68-1.46s0.67 1.4-1.17 2.77c-0.52 0.39-0.71 1.14-0.73 1.82 0 0.03-0.02 0.05-0.05 0.05h-0.57c-0.05 0-0.09-0.04-0.1-0.08-0.09-0.32-0.38-0.54-0.72-0.54-0.34 0-0.63 0.23-0.72 0.55-0.01 0.05-0.05 0.08-0.1 0.08h-0.54c-0.05 0-0.09-0.04-0.1-0.08-0.09-0.32-0.38-0.54-0.72-0.54-0.34 0-0.63 0.23-0.72 0.54-0.01 0.05-0.05 0.08-0.1 0.08h-0.6c-0.03 0-0.05-0.02-0.05-0.045-0.15-1.42 0.27-2.47 1.33-3.13m0 0 0.29 0.95c0.11 0.32 0.54 0.37 0.81 0.22 0.33-0.18 0.64-0.39 0.91-0.64" stroke="#6C707E" stroke-linecap="round" stroke-width=".85"/>
    <path d="m12.6 12.9c-0.07-0.04-0.1-0.12-0.08-0.19 0.07-0.19 0.24-0.34 0.46-0.36 0.25-0.03 0.5 0.13 0.58 0.37 0.07 0.2 0 0.42-0.14 0.56-0.06 0.05-0.14 0.05-0.2 0z" fill="#6C707E"/>
</svg>
